<?xml version="1.0" encoding="UTF-8" standalone="no"?>
<!-- Generator: Adobe Illustrator 25.0.0, SVG Export Plug-In . SVG Version: 6.00 Build 0)  -->

<svg
   version="1.1"
   id="Layer_1"
   x="0px"
   y="0px"
   viewBox="0 0 634.6 474.5"
   style="enable-background:new 0 0 634.6 474.5;"
   xml:space="preserve"
   sodipodi:docname="Cardano (ADA).svg"
   inkscape:version="1.1 (ce6663b3b7, 2021-05-25)"
   xmlns:inkscape="http://www.inkscape.org/namespaces/inkscape"
   xmlns:sodipodi="http://sodipodi.sourceforge.net/DTD/sodipodi-0.dtd"
   xmlns="http://www.w3.org/2000/svg"
   xmlns:svg="http://www.w3.org/2000/svg"><defs
   id="defs69" /><sodipodi:namedview
   id="namedview67"
   pagecolor="#ffffff"
   bordercolor="#666666"
   borderopacity="1.0"
   inkscape:pageshadow="2"
   inkscape:pageopacity="0.0"
   inkscape:pagecheckerboard="0"
   showgrid="false"
   inkscape:zoom="1.7787144"
   inkscape:cx="317.36404"
   inkscape:cy="237.5311"
   inkscape:window-width="1920"
   inkscape:window-height="1016"
   inkscape:window-x="0"
   inkscape:window-y="27"
   inkscape:window-maximized="1"
   inkscape:current-layer="Layer_1" />
<style
   type="text/css"
   id="style2">
	.st0{fill:#0033AD;}
</style>
<g
   id="Layer_2_1_"
   style="fill:#000000">
	<g
   id="Layer_1-2"
   style="fill:#000000">
		<path
   class="st0"
   d="M232.6,236c-0.8,13.9,9.9,25.8,23.8,26.6c0.5,0,1,0,1.5,0c14,0,25.3-11.3,25.2-25.3c0-14-11.3-25.3-25.3-25.2    C244.4,212.1,233.3,222.6,232.6,236z"
   id="path4"
   style="fill:#000000" />
		<path
   class="st0"
   d="M138.4,229.5c-4.5-0.3-8.4,3.2-8.6,7.7c-0.2,4.5,3.2,8.4,7.7,8.6c4.5,0.3,8.3-3.2,8.6-7.7    S142.9,229.8,138.4,229.5L138.4,229.5z"
   id="path6"
   style="fill:#000000" />
		<path
   class="st0"
   d="M231,89.4c4-2,5.6-7,3.6-11s-7-5.6-11-3.6s-5.6,6.9-3.6,10.9C222,89.8,226.9,91.5,231,89.4    C230.9,89.4,231,89.4,231,89.4z"
   id="path8"
   style="fill:#000000" />
		<path
   class="st0"
   d="M256.6,134.1c6.2-3.1,8.7-10.7,5.6-16.9c-3.1-6.2-10.7-8.7-16.9-5.6s-8.7,10.7-5.6,16.9    S250.4,137.2,256.6,134.1z"
   id="path10"
   style="fill:#000000" />
		<path
   class="st0"
   d="M170.4,164.8c4.8,3.1,11.2,1.8,14.4-3c3.1-4.8,1.8-11.2-3-14.4c-4.8-3.1-11.2-1.8-14.4,3l0,0    C164.2,155.2,165.6,161.7,170.4,164.8z"
   id="path12"
   style="fill:#000000" />
		<path
   class="st0"
   d="M185.7,225c-7-0.4-12.9,4.9-13.3,11.9s4.9,12.9,11.9,13.3c7,0.4,12.9-4.9,13.3-11.9l0,0    C198,231.4,192.7,225.4,185.7,225z"
   id="path14"
   style="fill:#000000" />
		<path
   class="st0"
   d="M171.8,309.7c-5.1,2.6-7.2,8.8-4.6,14c2.6,5.1,8.8,7.2,14,4.6c5.1-2.6,7.2-8.8,4.6-14l0,0    C183.2,309.2,176.9,307.1,171.8,309.7L171.8,309.7z"
   id="path16"
   style="fill:#000000" />
		<path
   class="st0"
   d="M220.8,198.9c6.9,4.5,16.1,2.6,20.5-4.3c4.5-6.9,2.6-16.1-4.3-20.5c-6.9-4.5-16.1-2.6-20.5,4.3    C212,185.2,213.9,194.4,220.8,198.9L220.8,198.9z"
   id="path18"
   style="fill:#000000" />
		<path
   class="st0"
   d="M376.3,133.1c5.8,3.8,13.7,2.2,17.5-3.6c3.8-5.8,2.2-13.7-3.6-17.5c-5.8-3.8-13.7-2.2-17.5,3.6l0,0    C368.8,121.5,370.4,129.3,376.3,133.1L376.3,133.1z"
   id="path20"
   style="fill:#000000" />
		<path
   class="st0"
   d="M402.1,88.6c3.8,2.5,8.8,1.4,11.3-2.4c2.5-3.8,1.4-8.8-2.4-11.3s-8.8-1.4-11.3,2.3    C397.3,81,398.4,86.1,402.1,88.6L402.1,88.6z"
   id="path22"
   style="fill:#000000" />
		<path
   class="st0"
   d="M378.2,211.9c-13.9-0.8-25.9,9.9-26.6,23.8c-0.8,13.9,9.9,25.9,23.8,26.6c0.5,0,1,0,1.4,0    c13.9,0,25.2-11.3,25.2-25.3C402.1,223.7,391.6,212.6,378.2,211.9L378.2,211.9z"
   id="path24"
   style="fill:#000000" />
		<path
   class="st0"
   d="M264.9,197.1c4.3,8.5,13,13.9,22.6,13.9c13.9,0,25.2-11.3,25.2-25.3c0-3.9-0.9-7.8-2.7-11.4    c-6.3-12.5-21.5-17.5-33.9-11.2C263.6,169.5,258.6,184.7,264.9,197.1L264.9,197.1z"
   id="path26"
   style="fill:#000000" />
		<path
   class="st0"
   d="M462.8,164.8c5.1-2.6,7.1-8.9,4.5-14s-8.9-7.1-14-4.5s-7.1,8.8-4.6,13.9C451.4,165.3,457.6,167.4,462.8,164.8    L462.8,164.8z"
   id="path28"
   style="fill:#000000" />
		<path
   class="st0"
   d="M398.8,172.8c-7.3,3.7-10.3,12.6-6.6,19.9c3.7,7.3,12.6,10.3,19.9,6.6s10.3-12.6,6.6-19.9    C415,172.1,406.1,169.2,398.8,172.8z"
   id="path30"
   style="fill:#000000" />
		<path
   class="st0"
   d="M316.3,84.8c5.7,0.3,10.6-4.1,11-9.8s-4.1-10.6-9.8-11c-5.7-0.3-10.6,4-11,9.7    C306.2,79.5,310.6,84.4,316.3,84.8L316.3,84.8z"
   id="path32"
   style="fill:#000000" />
		<path
   class="st0"
   d="M316.2,150.1c8.2,0.5,15.2-5.8,15.6-14c0.5-8.2-5.8-15.2-14-15.6c-8.2-0.5-15.2,5.8-15.6,14    C301.8,142.7,308,149.7,316.2,150.1L316.2,150.1z"
   id="path34"
   style="fill:#000000" />
		<path
   class="st0"
   d="M235.8,301.7c7.3-3.7,10.3-12.6,6.6-19.9s-12.6-10.3-19.9-6.6c-7.3,3.7-10.3,12.6-6.6,19.9    C219.6,302.4,228.5,305.4,235.8,301.7z"
   id="path36"
   style="fill:#000000" />
		<path
   class="st0"
   d="M325.8,171.8c-7.6,11.7-4.4,27.3,7.3,34.9c11.7,7.6,27.3,4.4,34.9-7.3s4.4-27.3-7.3-34.9    c-4.1-2.7-8.9-4.1-13.8-4.1C338.4,160.4,330.5,164.7,325.8,171.8z"
   id="path38"
   style="fill:#000000" />
		<path
   class="st0"
   d="M369.7,277.4c-6.3-12.5-21.5-17.5-33.9-11.2c-12.5,6.3-17.5,21.5-11.2,33.9c6.3,12.5,21.5,17.5,33.9,11.2l0,0    c12.4-6.2,17.5-21.2,11.3-33.7C369.8,277.5,369.8,277.5,369.7,277.4z"
   id="path40"
   style="fill:#000000" />
		<path
   class="st0"
   d="M413.8,275.6c-6.9-4.5-16.1-2.6-20.5,4.3c-4.5,6.9-2.6,16.1,4.3,20.5c6.9,4.5,16.1,2.6,20.5-4.3    C422.6,289.3,420.7,280.1,413.8,275.6L413.8,275.6z"
   id="path42"
   style="fill:#000000" />
		<path
   class="st0"
   d="M462.2,237.7c0.4-7-4.9-12.9-11.9-13.3c-7-0.4-12.9,4.9-13.3,11.9s4.9,12.9,11.9,13.3l0,0    C455.8,250,461.8,244.6,462.2,237.7z"
   id="path44"
   style="fill:#000000" />
		<path
   class="st0"
   d="M497.1,228.7c-4.5-0.3-8.4,3.2-8.6,7.7s3.2,8.4,7.7,8.6c4.5,0.3,8.3-3.2,8.6-7.7    C505,232.8,501.6,229,497.1,228.7z"
   id="path46"
   style="fill:#000000" />
		<path
   class="st0"
   d="M464.2,309.7c-4.8-3.1-11.2-1.8-14.4,3c-3.1,4.8-1.8,11.2,3,14.4c4.8,3.1,11.2,1.8,14.4-3    C470.4,319.3,469,312.8,464.2,309.7L464.2,309.7z"
   id="path48"
   style="fill:#000000" />
		<path
   class="st0"
   d="M232.4,385.9c-3.8-2.5-8.8-1.4-11.3,2.3c-2.5,3.8-1.4,8.8,2.3,11.3c3.8,2.5,8.8,1.4,11.3-2.3l0,0    C237.3,393.5,236.2,388.4,232.4,385.9z"
   id="path50"
   style="fill:#000000" />
		<path
   class="st0"
   d="M403.6,385.1c-4,2-5.6,7-3.6,11s7,5.6,11,3.6s5.6-6.9,3.6-10.9C412.6,384.7,407.7,383,403.6,385.1    C403.7,385.1,403.6,385.1,403.6,385.1z"
   id="path52"
   style="fill:#000000" />
		<path
   class="st0"
   d="M308.8,302.7c7.6-11.7,4.4-27.3-7.3-35c-11.7-7.6-27.3-4.4-35,7.3c-7.7,11.7-4.4,27.3,7.3,35    c4.1,2.7,8.9,4.1,13.8,4.1C296.2,314.2,304.1,309.9,308.8,302.7z"
   id="path54"
   style="fill:#000000" />
		<path
   class="st0"
   d="M258.3,341.4c-5.8-3.8-13.7-2.2-17.5,3.6c-3.8,5.8-2.2,13.7,3.6,17.5c5.8,3.8,13.7,2.2,17.5-3.6l0,0    C265.8,353.1,264.2,345.2,258.3,341.4z"
   id="path56"
   style="fill:#000000" />
		<path
   class="st0"
   d="M317.2,389.7c-5.7-0.3-10.6,4.1-11,9.8s4.1,10.6,9.8,11c5.7,0.3,10.6-4,11-9.7    C327.3,395,322.9,390.1,317.2,389.7L317.2,389.7z"
   id="path58"
   style="fill:#000000" />
		<path
   class="st0"
   d="M317.3,324.4c-8.2-0.5-15.2,5.8-15.6,14c-0.5,8.2,5.8,15.2,14,15.6c8.2,0.4,15.2-5.8,15.6-14    C331.8,331.9,325.5,324.8,317.3,324.4L317.3,324.4z"
   id="path60"
   style="fill:#000000" />
		<path
   class="st0"
   d="M378,340.4c-6.2,3.2-8.7,10.8-5.5,17c3.2,6.2,10.8,8.7,17,5.5c6.2-3.1,8.7-10.7,5.6-16.9    C391.9,339.8,384.3,337.2,378,340.4L378,340.4z"
   id="path62"
   style="fill:#000000" />
	</g>
</g>
</svg>
