<?xml version="1.0" encoding="UTF-8"?>
<!-- Svg Vector Icons : http://www.onlinewebfonts.com/icon -->
<!DOCTYPE svg PUBLIC "-//W3C//DTD SVG 1.1//EN" "http://www.w3.org/Graphics/SVG/1.1/DTD/svg11.dtd">
<svg version="1.1" xmlns="http://www.w3.org/2000/svg" xmlns:xlink="http://www.w3.org/1999/xlink" x="0px" y="0px" viewBox="0 0 1000 1000" enable-background="new 0 0 1000 1000" xml:space="preserve">
<metadata> Svg Vector Icons : http://www.onlinewebfonts.com/icon </metadata>
<g><g transform="translate(0.000000,512.000000) scale(0.100000,-0.100000)"><path d="M794.9,4991.2c-162.7-44-292.8-120.6-419.2-246.9c-65.1-65.1-139.7-162.7-168.4-218.2c-95.7-189.5-107.2-275.6-107.2-842.2v-522.5l47.9-45.9c44-45.9,53.6-47.9,325.4-47.9h277.5v-160.8v-160.8l-279.4-7.7c-279.4-5.7-279.4-5.7-325.4-59.3l-45.9-53.6V-681.9c0-3621.3-7.7-3378.2,109.1-3609.8c63.2-122.5,258.4-315.8,384.7-380.9c222-112.9,67-107.2,3129.4-107.2h2809.8l44,44c30.6,30.6,47.8,76.6,57.4,155c23,199,97.6,317.7,250.7,400c61.2,32.5,109.1,42.1,239.3,42.1c185.6,0,281.3-38.3,373.2-145.4c63.1-76.6,82.3-124.4,114.8-292.9c40.2-214.4-7.7-202.9,792.4-202.9c738.8,0,801.9,7.7,1001,107.2c128.3,65.1,321.6,258.4,386.7,386.6c114.8,225.9,107.2-53.6,107.2,4406.1c0,4459.7,7.7,4180.2-107.2,4406.1c-65.1,126.3-258.4,321.6-380.9,384.7c-208.6,105.3-246.9,109.1-999.1,109.1H7716l-44-44c-26.8-26.8-49.8-80.4-57.4-130.2c-34.5-233.5-101.5-346.4-246.9-424.9c-114.8-59.3-371.3-59.3-484.2,0c-166.5,88-246.9,237.3-254.6,470.8c-1.9,19.1-23,55.5-49.8,80.4l-45.9,47.9l-2819.4-1.9C1350,5018,879.1,5012.3,794.9,4991.2z M6332.1,4662c160.8-497.6,671.8-748.4,1106.3-545.5c218.2,101.5,401.9,312,478.5,545.5c9.6,32.5,47.9,34.5,629.7,28.7l618.2-5.7l112.9-57.4c70.8-36.4,137.8-88,176.1-139.7c118.7-157,120.6-174.2,120.6-1261.3v-981.9h-199.1c-199.1,0-199.1,0-248.8-59.3c-53.6-63.2-61.2-112.9-26.8-176.1c40.2-78.5,74.7-88,279.4-90h195.3v-76.6v-76.6h-162.7c-191.4,0-289-32.5-315.8-105.3c-30.6-82.3-23-124.4,36.4-183.7c55.5-53.6,61.2-55.5,248.8-55.5h193.3V1345v-76.6h-193.3c-187.6,0-193.3-1.9-248.8-55.5c-59.4-59.3-67-101.4-36.4-183.7c26.8-72.7,124.4-105.3,315.8-105.3h162.7v-76.6v-76.6H9385c-222,0-243.1-5.7-279.4-78.5c-42.1-80.4-34.5-128.2,26.8-191.4c55.5-53.6,61.2-55.5,248.8-55.5h193.3v-74.6v-74.6l-202.9-7.7c-195.3-5.7-204.8-7.7-248.8-59.3c-59.4-68.9-59.4-149.3,0-218.2c44-51.7,53.6-53.6,248.8-59.3l202.9-7.7v-74.6v-74.6h-199.1c-199.1,0-199.1,0-248.8-59.3c-57.4-67-61.2-111-21-187.6c36.4-72.7,57.4-78.5,279.4-78.5h189.5v-76.6v-76.5h-162.7c-191.4,0-289-32.6-315.8-105.3c-30.6-82.3-23-124.4,36.4-183.8c55.5-53.6,61.2-55.5,248.8-55.5h193.3v-76.6v-76.6h-193.3c-187.6,0-193.3-1.9-248.8-55.5c-59.4-59.3-67-101.4-36.4-183.8c26.8-72.7,124.4-105.3,315.8-105.3h162.7v-76.6v-76.6H9385c-222,0-243.1-5.7-279.4-78.5c-42.1-80.4-34.5-128.2,26.8-191.4c55.5-53.6,61.2-55.5,250.7-55.5h193.3l-5.8-1020.2c-5.7-991.4-7.6-1020.2-45.9-1106.3c-51.7-111-162.7-222.1-273.7-273.7c-82.3-38.3-122.5-40.2-706.3-45.9c-581.9-5.7-616.3-3.8-627.8,28.7c-76.6,233.5-260.3,444.1-478.5,545.5c-434.5,202.9-943.6-47.9-1106.3-545.5c-9.6-30.6-147.4-32.5-2754.3-28.7l-2742.8,5.7l-112.9,57.4c-70.8,36.4-137.8,88-176.1,139.7c-128.2,168.4-120.6-53.6-120.6,3460.5v3181.1l279.4,7.7c279.5,5.7,279.5,5.7,325.4,59.3c45.9,53.6,45.9,59.3,45.9,442.1v388.6l-49.8,45.9c-45.9,44-63.2,45.9-325.4,51.7l-275.6,5.7v390.5c0,214.4,9.6,432.6,21.1,486.2c40.2,193.3,183.7,344.5,377.1,396.2c70.8,19.1,677.6,24.9,2794.5,24.9C6177.1,4694.6,6322.6,4692.6,6332.1,4662z"/><path d="M806.4,4313.7c-59.3-59.3-68.9-112.9-32.5-179.9c78.5-149.3,304.3-99.5,302.4,67c-1.9,70.8-26.8,112.9-90,145.5C919.3,4382.6,865.7,4373,806.4,4313.7z"/><path d="M9009.9,4346.2c-145.5-84.2-93.8-304.3,70.8-302.4c70.8,1.9,112.9,26.8,145.5,90c36.4,67,26.8,120.6-32.5,179.9C9134.3,4371.1,9073,4382.6,9009.9,4346.2z"/><path d="M3907.1,3662.9c-53.6-55.5-55.5-61.3-55.5-248.8v-193.3h-112.9c-103.4,0-118.7-5.7-162.7-59.3c-47.8-57.4-49.8-67-49.8-323.5v-262.2l-214.4-9.6c-187.6-7.7-231.6-15.3-331.1-63.2c-147.4-70.8-292.8-216.3-363.7-363.7c-47.8-99.5-55.5-143.5-63.2-329.2l-9.6-216.3h-262.2c-256.5,0-266-1.9-323.5-49.8c-53.6-44-59.3-59.3-59.3-162.7v-112.9H1706c-187.6,0-193.3-1.9-248.8-55.5c-91.9-91.9-68.9-212.5,49.8-262.2c40.2-15.3,132.1-26.8,229.7-26.8h162.7V770.8V617.7H1706c-187.6,0-193.3-1.9-248.8-55.5c-68.9-70.8-72.7-151.2-9.6-225.9c44-51.7,53.6-53.6,248.8-59.3l202.9-7.7V120.1V-29.2l-202.9-7.7c-195.2-5.7-204.8-7.7-248.8-59.3c-63.2-74.6-59.3-155,9.6-225.8c55.5-53.6,61.3-55.5,248.8-55.5h193.3v-153.1v-153.1h-162.7c-97.6,0-189.5-11.5-229.7-26.8c-118.7-49.7-141.6-170.3-49.8-262.2c55.5-53.6,61.3-55.5,248.8-55.5h193.3v-112.9c0-103.4,5.7-118.7,59.3-162.7c57.4-47.9,67-49.8,323.5-49.8h264.1l7.7-214.4c5.7-189.5,13.4-229.7,63.2-331.1c70.8-147.4,218.2-292.9,363.7-363.7c99.5-47.9,143.5-55.5,331.1-63.1l214.4-9.6v-262.2c0-256.5,1.9-266.1,49.8-323.5c44-53.6,59.3-59.3,162.7-59.3h112.9V-3174c0-187.6,1.9-193.3,55.5-248.8c91.9-91.9,212.5-68.9,262.2,49.8c15.3,40.2,26.8,132.1,26.8,229.7v162.7h153.1h153.1V-3174c0-187.6,1.9-193.3,55.5-248.8c70.8-68.9,151.2-72.8,225.9-9.6c51.7,44,53.6,53.6,59.3,248.8l7.7,202.9H5000h149.3l7.7-202.9c5.8-195.2,7.7-204.8,59.3-248.8c74.6-63.2,155-59.4,225.9,9.6c53.6,55.5,55.5,61.2,55.5,248.8v193.3h153.1h153.1v-162.7c0-97.6,11.5-189.5,26.8-229.7c49.8-118.7,170.3-141.7,262.2-49.8c53.6,55.5,55.5,61.2,55.5,248.8v193.3h107.2c91.9,0,112.9,7.7,162.7,55.5l55.5,55.5v267.9v266.1l216.3,9.6c185.7,7.6,229.7,15.3,329.2,63.1c147.4,70.8,292.8,216.3,363.7,363.7c47.8,99.5,55.5,143.6,63.1,331.1l9.6,214.4h266.1h268l55.5,55.5c47.9,49.7,55.5,70.8,55.5,162.7v107.2H8294c187.6,0,193.3,1.9,248.8,55.5c91.9,91.9,68.9,212.5-49.8,262.2c-40.2,15.3-132.1,26.8-229.7,26.8h-162.7v153.1v153.1H8294c187.6,0,193.3,1.9,248.8,55.5c68.9,70.8,72.8,151.2,9.6,225.8c-44,51.7-53.6,53.6-248.8,59.3l-202.9,7.7v149.3v149.3l202.9,7.7c195.2,5.7,204.8,7.7,248.8,59.3c63.2,74.7,59.3,155-9.6,225.9c-55.5,53.6-61.2,55.5-248.8,55.5h-193.3v153.1v153.1h162.7c97.6,0,189.5,11.5,229.7,26.8c118.7,49.8,141.7,170.3,49.8,262.2c-55.5,53.6-61.2,55.5-248.8,55.5h-193.3v112.9c0,103.4-5.8,118.7-59.3,162.7c-57.4,47.9-67,49.8-323.5,49.8h-262.2l-9.6,216.3c-7.6,185.7-15.3,229.7-63.1,329.2c-70.8,145.5-216.3,292.8-363.7,363.7c-101.5,49.8-141.7,57.4-329.2,63.2l-216.3,7.7V2838c0,256.5-1.9,266-49.8,323.5c-44,53.6-59.4,59.3-162.7,59.3h-112.9v193.3c0,187.6-1.9,193.3-55.5,248.8c-91.9,91.9-212.5,68.9-262.2-49.8c-15.3-40.2-26.8-132.1-26.8-229.7v-162.7h-153.1h-153.1v193.3c0,187.6-1.9,193.3-55.5,248.8c-70.8,68.9-151.2,72.7-225.9,9.6c-51.7-44-53.6-53.6-59.3-248.8l-7.7-202.9H5000h-149.3l-7.7,202.9c-5.7,195.2-7.7,204.8-59.3,248.8c-74.7,63.2-155,59.3-225.9-9.6c-53.6-55.5-55.5-61.3-55.5-248.8v-193.3h-153.1h-153.1v162.7c0,97.6-11.5,189.5-26.8,229.7C4119.5,3731.8,3999,3754.8,3907.1,3662.9z M6148.4,2732.7V2570H5000H3851.6v162.7v162.7H5000h1148.4V2732.7z M6904.5,2208.3c95.7-42.1,174.2-132.1,201-227.8c26.8-101.5,26.8-3623.2-1.9-3726.6c-26.8-97.6-139.7-210.5-237.3-237.3c-103.4-28.7-3625.2-28.7-3726.6-1.9c-95.7,26.8-185.7,105.3-227.8,201c-34.5,72.7-36.4,172.3-36.4,1900.6c0,1604,3.8,1831.7,28.7,1894.9c40.2,93.8,99.5,155,191.4,197.1c72.7,34.4,168.4,36.4,1904.4,36.4C6732.2,2244.6,6831.7,2242.7,6904.5,2208.3z M2550,120.1v-1148.4h-162.7h-162.7V120.1v1148.4h162.7H2550V120.1z M7775.3,120.1v-1148.4h-162.7H7450V120.1v1148.4h162.7h162.7V120.1z M6148.4-2492.6v-162.7H5000H3851.6v162.7v162.7H5000h1148.4V-2492.6z"/><path d="M3606.6,1733.6c-30.6-11.5-80.4-107.2-80.4-156.9c0-55.5,76.6-134,145.5-147.4c84.2-15.3,179.9,67,179.9,157C3851.6,1704.9,3725.3,1781.4,3606.6,1733.6z"/><path d="M4224.8,1685.7c-55.5-67-55.5-145.5,1.9-208.6c67-72.7,231.6-53.6,264.1,30.6c45.9,122.5-24.9,239.3-145.5,239.3C4291.8,1747,4265,1733.6,4224.8,1685.7z"/><path d="M4890.9,1704.9c-57.4-65.1-65.1-105.3-36.4-176.1c70.8-168.4,308.2-112.9,302.4,70.8C5153.1,1729.7,4977,1798.7,4890.9,1704.9z"/><path d="M5539.7,1703c-26.8-28.7-42.1-68.9-42.1-114.8c0-170.4,218.2-222,296.7-70.8C5876.6,1674.2,5660.3,1831.2,5539.7,1703z"/><path d="M6196.3,1699.1c-145.5-143.5,70.8-365.6,222-227.8c49.8,45.9,63.2,130.1,28.7,195.2C6397.2,1762.3,6272.8,1777.6,6196.3,1699.1z"/><path d="M3947.3,1243.6c-26.8-13.4-59.3-47.9-72.7-78.5c-76.6-157,130.2-298.6,254.6-174.2c80.4,78.5,59.3,201-42.1,254.6C4035.3,1274.2,4006.6,1274.2,3947.3,1243.6z"/><path d="M4603.8,1249.3c-55.5-23-107.2-124.4-90-178c23-78.5,86.1-128.2,160.8-128.2c88,0,153.1,63.2,153.1,147.4c0,86.1-17.2,118.7-78.5,149.3C4688,1272.3,4665,1274.2,4603.8,1249.3z"/><path d="M5258.4,1245.5c-61.3-32.5-86.1-74.6-86.1-149.3c0-183.8,250.7-210.5,312-34.4c19.1,53.6-24.9,149.3-84.2,178C5336.9,1274.2,5310.1,1274.2,5258.4,1245.5z"/><path d="M5909.2,1247.4c-147.4-84.2-93.8-306.2,70.8-304.3c201,1.9,222,281.4,23,315.8C5972.3,1264.6,5930.2,1258.9,5909.2,1247.4z"/><path d="M3576,711.5c-65.1-76.6-63.2-141.6,5.7-210.5c63.2-61.2,111-68.9,191.4-26.8c143.5,72.7,82.3,296.7-82.3,296.7C3641,770.8,3614.2,757.4,3576,711.5z"/><path d="M4242,724.9c-120.6-101.5-30.6-296.7,124.4-271.8c86.1,13.4,135.9,72.7,135.9,158.9C4502.3,749.8,4349.2,818.7,4242,724.9z"/><path d="M4892.8,726.8c-61.2-53.6-68.9-137.8-21.1-212.5c59.3-90,197.1-90,254.6,0C5233.5,677,5038.3,851.2,4892.8,726.8z"/><path d="M5545.5,723c-99.6-97.6-30.6-277.5,103.3-277.5c88,0,162.7,74.6,162.7,162.7C5811.5,749.8,5643.1,822.5,5545.5,723z"/><path d="M6196.3,723c-78.5-76.6-63.2-201,30.6-248.8c80.4-42.1,128.2-34.5,191.4,26.8c68.9,68.9,70.8,134,5.8,210.5C6360.9,788,6265.2,793.8,6196.3,723z"/><path d="M3954.9,265.5c-80.4-34.5-116.8-124.4-84.2-202.9c67-162.7,306.2-116.8,306.2,57.4C4177,238.7,4064,311.5,3954.9,265.5z"/><path d="M4605.7,265.5c-80.4-36.4-112.9-124.4-76.6-212.5c65.1-157,298.6-105.3,298.6,67C4827.7,238.7,4714.8,311.5,4605.7,265.5z"/><path d="M5287.1,278.9c-155.1-55.5-151.2-262.2,3.8-317.7c19.1-5.7,61.3-1.9,93.8,9.6c132.1,45.9,135.9,241.2,5.7,294.8c-34.5,15.3-67,26.8-68.9,24.9C5317.7,290.4,5302.4,284.7,5287.1,278.9z"/><path d="M5937.9,278.9c-168.4-61.2-141.6-312,32.5-315.8c183.7-5.7,239.3,231.6,70.8,302.4c-36.4,15.3-67,26.8-68.9,24.9C5968.5,290.4,5953.2,284.7,5937.9,278.9z"/><path d="M3581.7-260.8c-32.5-34.5-55.5-76.6-55.5-107.2c0-72.7,95.7-162.7,172.3-162.7c157,0,214.4,225.9,74.6,296.7C3692.7-191.9,3644.9-199.6,3581.7-260.8z"/><path d="M4242-251.3c-111-93.8-38.3-279.5,109.1-279.5c82.3,0,151.2,74.7,151.2,162.7C4502.3-226.4,4349.2-157.5,4242-251.3z"/><path d="M4894.7-249.4c-74.6-63.1-74.6-174.2-1.9-235.4c158.9-137.8,363.7,82.3,212.5,231.6C5045.9-191.9,4961.7-191.9,4894.7-249.4z"/><path d="M5545.5-253.2c-99.6-97.6-30.6-277.5,103.3-277.5c88,0,162.7,74.7,162.7,162.7C5811.5-226.4,5643.1-153.7,5545.5-253.2z"/><path d="M6234.6-228.3c-145.5-78.5-95.7-302.4,67-302.4c76.6,0,172.3,90,172.3,162.7c0,63.2-95.7,162.7-157,162.7C6292-205.3,6255.6-216.8,6234.6-228.3z"/><path d="M3909-741.3c-82.3-82.3-61.3-214.4,44-264.1c158.9-76.6,302.4,130.2,176.1,254.6C4069.8-691.5,3964.5-685.7,3909-741.3z"/><path d="M4565.5-745.1c-57.4-65.1-68.9-120.6-36.4-183.7c40.2-78.5,126.3-111,202.9-80.4c70.8,28.7,95.7,70.8,95.7,158.9C4827.7-718.3,4653.6-649.4,4565.5-745.1z"/><path d="M5214.4-747c-44-47.9-55.5-143.6-22.9-202.9c30.6-59.3,124.4-88,193.3-57.4c67,26.8,120.6,126.3,99.5,183.8C5442.1-703,5294.7-660.9,5214.4-747z"/><path d="M5865.1-747c-82.3-88.1-36.4-243.1,82.3-273.7c101.4-24.9,218.2,91.9,193.3,193.3C6110.1-706.8,5947.4-659,5865.1-747z"/><path d="M3621.9-1206.4c-151.2-76.6-101.4-300.5,67-300.5c153.1,0,220.1,178,103.4,275.6C3727.2-1175.7,3692.7-1170,3621.9-1206.4z"/><path d="M4282.2-1200.6c-53.6-21-84.2-59.3-97.6-128.2c-15.3-80.4,67-178,155-178c90,0,162.7,63.1,162.7,143.5c0,90-15.3,122.5-78.5,153.1C4364.5-1177.7,4337.7-1175.7,4282.2-1200.6z"/><path d="M4921.5-1210.2c-55.5-30.6-99.5-126.3-80.4-178c5.7-17.2,28.7-51.7,49.8-74.7c76.6-86.1,225.9-44,268,74.7c19.1,53.6-24.9,149.3-84.2,178C5009.6-1175.7,4984.7-1175.7,4921.5-1210.2z"/><path d="M5583.8-1204.5c-97.6-51.7-118.7-187.6-42.1-260.3c128.3-120.6,333,32.5,252.7,187.6C5750.3-1192.9,5660.3-1162.3,5583.8-1204.5z"/><path d="M6209.6-1229.3c-147.4-124.4-5.7-334.9,178-266.1c84.2,32.5,103.4,197.2,30.6,264.2C6355.1-1173.8,6276.6-1173.8,6209.6-1229.3z"/><path d="M683.9-877.1c-63.2-36.4-86.1-78.5-86.1-153.1c0-137.8,174.2-204.8,268-103.4c57.4,61.3,61.3,166.5,7.7,220.1C827.4-865.7,733.6-848.4,683.9-877.1z"/><path d="M683.9-1529.8c-61.3-32.5-86.1-74.6-86.1-149.3c0-189.5,258.4-208.6,313.9-24.9c17.2,55.5-30.6,145.4-93.8,174.2C756.6-1501.1,733.6-1501.1,683.9-1529.8z"/><path d="M712.6-2171c-155-57.4-151.2-262.2,5.7-317.7c19.1-7.7,63.2-1.9,97.6,13.4c134,55.5,132.1,235.4,0,290.9c-36.4,15.3-67,26.8-68.9,24.9C743.2-2159.5,727.9-2165.3,712.6-2171z"/><path d="M639.9-2871.6c-80.4-86.1-40.2-235.4,72.7-271.8c99.5-30.6,227.8,91.9,202.9,193.3C884.8-2831.4,722.2-2785.4,639.9-2871.6z"/><path d="M812.1-3842c-88-82.3-70.8-204.8,36.4-266.1c97.6-55.5,227.8,26.8,227.8,145.5C1076.2-3828.6,909.7-3752,812.1-3842z"/><path d="M8971.6-3851.5c-90-88-45.9-239.3,80.4-269.9c101.5-26.8,216.3,88,189.5,189.5C9210.8-3805.6,9059.6-3761.6,8971.6-3851.5z"/><path d="M1820.8-3985.5c-59.3-32.5-103.4-124.4-84.2-181.8c55.5-174.2,317.7-141.6,315.8,40.2c-1.9,72.8-26.8,114.8-90,147.4C1908.9-3951.1,1882.1-3951.1,1820.8-3985.5z"/><path d="M2471.6-3985.5c-55.5-30.6-99.5-126.3-80.4-178c55.5-157,262.2-157,317.7,0c19.1,53.6-24.9,149.3-84.2,178C2559.6-3951.1,2534.7-3951.1,2471.6-3985.5z"/><path d="M3133.8-3979.8c-61.3-32.5-86.1-74.6-86.1-149.3c0-189.5,258.4-208.6,313.9-24.9c17.2,55.5-30.6,145.4-93.8,174.2C3206.6-3951.1,3183.6-3951.1,3133.8-3979.8z"/><path d="M3813.3-3970.2c-111-42.1-147.4-168.4-74.6-262.2c40.2-49.7,124.4-67,199.1-38.3c47.9,19.1,90,118.7,76.6,179.9C3995.1-4002.8,3891.8-3939.6,3813.3-3970.2z"/></g></g>
</svg>